<svg width="163" height="87" viewBox="0 0 163 87" fill="none" xmlns="http://www.w3.org/2000/svg">
<path d="M81.6894 35.5909H67.8377C67.671 35.5931 67.5054 35.5618 67.3509 35.4988C67.1964 35.4359 67.0561 35.3425 66.9382 35.2242C66.8202 35.106 66.7271 34.9652 66.6643 34.8103C66.6015 34.6554 66.5703 34.4894 66.5725 34.3222V20.4318C66.5725 16.4114 68.1652 12.5556 71.0001 9.71272C73.8351 6.86983 77.6802 5.27272 81.6894 5.27272V5.27272C83.6746 5.27272 85.6404 5.66482 87.4744 6.42664C89.3085 7.18845 90.975 8.30506 92.3787 9.71272C93.7825 11.1204 94.896 12.7915 95.6557 14.6307C96.4154 16.4699 96.8064 18.4411 96.8064 20.4318V20.4318C96.8064 22.4225 96.4154 24.3938 95.6557 26.2329C94.896 28.0721 93.7825 29.7433 92.3787 31.1509C90.975 32.5586 89.3085 33.6752 87.4744 34.437C85.6404 35.1988 83.6746 35.5909 81.6894 35.5909V35.5909Z" stroke="#00B37E" stroke-width="2" stroke-linecap="round" stroke-linejoin="round"/>
<path d="M76.4314 18.4545H86.2903" stroke="#996DFF" stroke-width="2" stroke-linecap="round" stroke-linejoin="round"/>
<path d="M76.4314 23.7273H86.2903" stroke="#996DFF" stroke-width="2" stroke-linecap="round" stroke-linejoin="round"/>
<path d="M96.9238 65.0877V67.513H84.7851V65.0877H96.9238ZM85.2472 55.4176V77.9091H82.2742V55.4176H85.2472ZM99.5118 55.4176V77.9091H96.5541V55.4176H99.5118Z" fill="#00B37E"/>
<path d="M111.281 78.218C110.12 78.218 109.068 78.0224 108.123 77.631C107.188 77.2294 106.382 76.6682 105.704 75.9473C105.037 75.2264 104.523 74.3716 104.164 73.383C103.805 72.3944 103.625 71.313 103.625 70.139V69.4902C103.625 68.1309 103.825 66.9208 104.226 65.8601C104.626 64.7891 105.17 63.8828 105.858 63.1413C106.547 62.3999 107.327 61.8386 108.2 61.4576C109.073 61.0765 109.977 60.886 110.911 60.886C112.102 60.886 113.129 61.092 113.992 61.5039C114.865 61.9158 115.579 62.4925 116.133 63.234C116.688 63.9652 117.099 64.8303 117.366 65.8292C117.633 66.8178 117.766 67.8992 117.766 69.0732V70.3553H105.319V68.0227H114.916V67.8065C114.875 67.065 114.721 66.3441 114.454 65.6438C114.197 64.9435 113.787 64.3668 113.222 63.9137C112.657 63.4606 111.887 63.234 110.911 63.234C110.264 63.234 109.668 63.3731 109.124 63.6511C108.58 63.9189 108.113 64.3205 107.722 64.856C107.332 65.3915 107.029 66.0455 106.814 66.8178C106.598 67.5902 106.49 68.481 106.49 69.4902V70.139C106.49 70.932 106.598 71.6786 106.814 72.3789C107.039 73.0689 107.363 73.6765 107.784 74.2017C108.215 74.7269 108.734 75.1389 109.34 75.4375C109.956 75.7362 110.654 75.8855 111.435 75.8855C112.441 75.8855 113.294 75.6795 113.992 75.2676C114.69 74.8557 115.301 74.3047 115.825 73.6147L117.55 74.9895C117.191 75.5353 116.734 76.0554 116.179 76.5497C115.625 77.044 114.942 77.4457 114.131 77.7546C113.33 78.0636 112.38 78.218 111.281 78.218Z" fill="#00B37E"/>
<path d="M124.19 54.1818V77.9091H121.325V54.1818H124.19Z" fill="#00B37E"/>
<path d="M131.615 64.408V84.3352H128.75V61.195H131.368L131.615 64.408ZM142.845 69.413V69.7374C142.845 70.9526 142.701 72.0803 142.413 73.1204C142.126 74.1502 141.705 75.0462 141.15 75.8082C140.606 76.5703 139.933 77.1625 139.132 77.5847C138.331 78.0069 137.412 78.218 136.375 78.218C135.317 78.218 134.382 78.043 133.571 77.6928C132.76 77.3427 132.072 76.8329 131.507 76.1635C130.942 75.4941 130.49 74.6909 130.151 73.7537C129.823 72.8166 129.597 71.761 129.474 70.587V68.8569C129.597 67.6211 129.828 66.514 130.167 65.5357C130.506 64.5574 130.952 63.7232 131.507 63.0332C132.072 62.3329 132.755 61.8026 133.556 61.4421C134.357 61.0714 135.281 60.886 136.329 60.886C137.376 60.886 138.305 61.092 139.117 61.5039C139.928 61.9055 140.611 62.4823 141.166 63.234C141.72 63.9858 142.136 64.8869 142.413 65.9373C142.701 66.9775 142.845 68.136 142.845 69.413ZM139.979 69.7374V69.413C139.979 68.5788 139.892 67.7962 139.717 67.065C139.543 66.3235 139.271 65.6747 138.901 65.1186C138.542 64.5522 138.079 64.1094 137.515 63.7901C136.95 63.4606 136.277 63.2958 135.497 63.2958C134.778 63.2958 134.151 63.4194 133.617 63.6666C133.094 63.9137 132.647 64.2484 132.277 64.6706C131.907 65.0826 131.604 65.5563 131.368 66.0918C131.142 66.617 130.973 67.1628 130.86 67.7292V71.7301C131.065 72.451 131.353 73.1307 131.723 73.7692C132.092 74.3974 132.585 74.9071 133.201 75.2985C133.818 75.6795 134.593 75.87 135.527 75.87C136.298 75.87 136.96 75.7104 137.515 75.3912C138.079 75.0616 138.542 74.6136 138.901 74.0472C139.271 73.4808 139.543 72.832 139.717 72.1009C139.892 71.3594 139.979 70.5716 139.979 69.7374Z" fill="#00B37E"/>
<path d="M24.7727 77H21.8182L30.3636 53.7273H33.2727L41.8182 77H38.8636L31.9091 57.4091H31.7273L24.7727 77ZM25.8636 67.9091H37.7727V70.4091H25.8636V67.9091ZM43.7995 83.5455V59.5455H46.3905V62.3182H46.7086C46.9056 62.0152 47.1783 61.6288 47.5268 61.1591C47.8829 60.6818 48.3905 60.2576 49.0495 59.8864C49.7162 59.5076 50.6177 59.3182 51.7541 59.3182C53.2238 59.3182 54.5192 59.6856 55.6405 60.4205C56.7617 61.1553 57.6367 62.197 58.2655 63.5455C58.8942 64.8939 59.2086 66.4848 59.2086 68.3182C59.2086 70.1667 58.8942 71.7689 58.2655 73.125C57.6367 74.4735 56.7655 75.5189 55.6518 76.2614C54.5382 76.9962 53.2541 77.3636 51.7995 77.3636C50.6783 77.3636 49.7806 77.178 49.1064 76.8068C48.4321 76.428 47.9132 76 47.5495 75.5227C47.1859 75.0379 46.9056 74.6364 46.7086 74.3182H46.4814V83.5455H43.7995ZM46.4359 68.2727C46.4359 69.5909 46.6291 70.7538 47.0155 71.7614C47.4018 72.7614 47.9662 73.5455 48.7086 74.1136C49.4511 74.6742 50.3602 74.9545 51.4359 74.9545C52.5571 74.9545 53.4927 74.6591 54.2427 74.0682C55.0003 73.4697 55.5685 72.6667 55.9473 71.6591C56.3336 70.6439 56.5268 69.5152 56.5268 68.2727C56.5268 67.0455 56.3374 65.9394 55.9586 64.9545C55.5874 63.9621 55.023 63.178 54.2655 62.6023C53.5155 62.0189 52.5723 61.7273 51.4359 61.7273C50.345 61.7273 49.4283 62.0038 48.6859 62.5568C47.9435 63.1023 47.3829 63.8674 47.0041 64.8523C46.6253 65.8295 46.4359 66.9697 46.4359 68.2727ZM62.0195 83.5455V59.5455H64.6105V62.3182H64.9286C65.1256 62.0152 65.3983 61.6288 65.7468 61.1591C66.1029 60.6818 66.6105 60.2576 67.2695 59.8864C67.9362 59.5076 68.8377 59.3182 69.9741 59.3182C71.4438 59.3182 72.7392 59.6856 73.8605 60.4205C74.9817 61.1553 75.8567 62.197 76.4855 63.5455C77.1142 64.8939 77.4286 66.4848 77.4286 68.3182C77.4286 70.1667 77.1142 71.7689 76.4855 73.125C75.8567 74.4735 74.9855 75.5189 73.8718 76.2614C72.7582 76.9962 71.4741 77.3636 70.0195 77.3636C68.8983 77.3636 68.0006 77.178 67.3264 76.8068C66.6521 76.428 66.1332 76 65.7695 75.5227C65.4059 75.0379 65.1256 74.6364 64.9286 74.3182H64.7014V83.5455H62.0195ZM64.6559 68.2727C64.6559 69.5909 64.8491 70.7538 65.2355 71.7614C65.6218 72.7614 66.1862 73.5455 66.9286 74.1136C67.6711 74.6742 68.5802 74.9545 69.6559 74.9545C70.7771 74.9545 71.7127 74.6591 72.4627 74.0682C73.2203 73.4697 73.7885 72.6667 74.1673 71.6591C74.5536 70.6439 74.7468 69.5152 74.7468 68.2727C74.7468 67.0455 74.5574 65.9394 74.1786 64.9545C73.8074 63.9621 73.243 63.178 72.4855 62.6023C71.7355 62.0189 70.7923 61.7273 69.6559 61.7273C68.565 61.7273 67.6483 62.0038 66.9059 62.5568C66.1635 63.1023 65.6029 63.8674 65.2241 64.8523C64.8453 65.8295 64.6559 66.9697 64.6559 68.2727Z" fill="#996DFF"/>
</svg>
