<svg width="154" height="26" viewBox="0 0 154 26" fill="none" xmlns="http://www.w3.org/2000/svg">
<path fill-rule="evenodd" clip-rule="evenodd" d="M12.9339 3.43149C10.6348 3.43149 8.4295 4.32831 6.80325 5.92521C5.17695 7.52216 4.26299 9.68844 4.26299 11.9476V20.31C4.26272 20.3305 4.26657 20.3508 4.2744 20.3697C4.28222 20.3886 4.29377 20.4057 4.30829 20.4199C4.3228 20.4342 4.33997 20.4453 4.35875 20.4528C4.37753 20.4603 4.39758 20.464 4.41774 20.4637L4.4259 20.4636L12.9339 20.4637C14.0724 20.4637 15.1997 20.2435 16.2516 19.8157C17.3035 19.3878 18.2593 18.7607 19.0646 17.97C19.8698 17.1793 20.5087 16.2405 20.9446 15.2071C21.3805 14.1738 21.6048 13.0662 21.6048 11.9476C21.6048 10.829 21.3805 9.72142 20.9446 8.68808C20.5087 7.65473 19.8698 6.71593 19.0646 5.92521C18.2593 5.13449 17.3035 4.50736 16.2516 4.07952C15.1997 3.65168 14.0724 3.43149 12.9339 3.43149ZM12.9339 21.6666H4.4293C4.24621 21.6684 4.06462 21.6344 3.89507 21.5667C3.72405 21.4985 3.5688 21.3973 3.43844 21.2693C3.30809 21.1413 3.20525 20.9891 3.13593 20.8216C3.06719 20.6555 3.03275 20.4778 3.03455 20.2987V11.9476C3.03455 9.37049 4.0771 6.8986 5.9334 5.0758C7.78976 3.25295 10.3079 2.22858 12.9339 2.22858C14.2342 2.22858 15.5216 2.48006 16.7228 2.96862C17.924 3.45718 19.0153 4.17323 19.9344 5.0758C20.8536 5.97837 21.5826 7.04979 22.08 8.22883C22.5773 9.40788 22.8333 10.6715 22.8333 11.9476C22.8333 13.2237 22.5773 14.4873 22.08 15.6664C21.5826 16.8454 20.8536 17.9168 19.9344 18.8194C19.0153 19.722 17.924 20.438 16.7228 20.9266C15.5216 21.4151 14.2342 21.6666 12.9339 21.6666Z" fill="#00B37E"/>
<path fill-rule="evenodd" clip-rule="evenodd" d="M9.09015 10.7583C9.09015 10.4262 9.36515 10.1569 9.70437 10.1569H15.7599C16.0991 10.1569 16.3741 10.4262 16.3741 10.7583C16.3741 11.0905 16.0991 11.3598 15.7599 11.3598H9.70437C9.36515 11.3598 9.09015 11.0905 9.09015 10.7583Z" fill="#996DFF"/>
<path fill-rule="evenodd" clip-rule="evenodd" d="M9.09015 13.9297C9.09015 13.5975 9.36515 13.3282 9.70437 13.3282H15.7599C16.0991 13.3282 16.3741 13.5975 16.3741 13.9297C16.3741 14.2619 16.0991 14.5311 15.7599 14.5311H9.70437C9.36515 14.5311 9.09015 14.2619 9.09015 13.9297Z" fill="#996DFF"/>
<path d="M81.7698 10.1015V11.9031H72.5611V10.1015H81.7698ZM72.9117 2.91802V19.626H70.6562V2.91802H72.9117ZM83.7331 2.91802V19.626H81.4893V2.91802H83.7331Z" fill="#00B37E"/>
<path d="M92.6613 19.8555C91.7809 19.8555 90.9824 19.7101 90.2656 19.4194C89.5567 19.1211 88.9451 18.7041 88.4309 18.1686C87.9245 17.6331 87.535 16.9981 87.2623 16.2637C86.9896 15.5293 86.8533 14.726 86.8533 13.8539V13.372C86.8533 12.3621 87.0052 11.4633 87.309 10.6753C87.6129 9.87967 88.0258 9.20645 88.5478 8.65564C89.0697 8.10483 89.6618 7.6879 90.3241 7.40484C90.9863 7.12178 91.6719 6.98026 92.3808 6.98026C93.2846 6.98026 94.0636 7.13326 94.7181 7.43927C95.3803 7.74527 95.9217 8.17368 96.3424 8.72449C96.7631 9.26765 97.0748 9.91027 97.2773 10.6523C97.4799 11.3867 97.5812 12.19 97.5812 13.0621V14.0146H88.1387V12.2818H95.4192V12.1212C95.3881 11.5704 95.2712 11.0348 95.0686 10.5146C94.8739 9.99442 94.5622 9.56601 94.1337 9.2294C93.7053 8.8928 93.1209 8.72449 92.3808 8.72449C91.89 8.72449 91.4381 8.82777 91.0252 9.03432C90.6123 9.23323 90.2578 9.53159 89.9618 9.92939C89.6657 10.3272 89.4359 10.813 89.2723 11.3867C89.1087 11.9605 89.0269 12.6223 89.0269 13.372V13.8539C89.0269 14.443 89.1087 14.9976 89.2723 15.5178C89.4437 16.0304 89.6891 16.4818 90.0085 16.8719C90.3357 17.2621 90.7292 17.5681 91.1888 17.7899C91.6563 18.0118 92.1861 18.1227 92.7782 18.1227C93.5417 18.1227 94.1883 17.9697 94.7181 17.6637C95.2478 17.3577 95.7114 16.9484 96.1087 16.4359L97.4176 17.4572C97.1449 17.8626 96.7982 18.2489 96.3775 18.6162C95.9568 18.9834 95.4387 19.2817 94.8232 19.5112C94.2156 19.7407 93.4949 19.8555 92.6613 19.8555Z" fill="#00B37E"/>
<path d="M102.454 2V19.626H100.281V2H102.454Z" fill="#00B37E"/>
<path d="M108.087 9.59661V24.3997H105.913V7.20976H107.9L108.087 9.59661ZM116.606 13.3146V13.5556C116.606 14.4583 116.497 15.296 116.279 16.0686C116.061 16.8337 115.741 17.4992 115.321 18.0653C114.908 18.6315 114.398 19.0713 113.79 19.385C113.182 19.6987 112.485 19.8555 111.698 19.8555C110.896 19.8555 110.187 19.7254 109.571 19.4653C108.956 19.2052 108.434 18.8265 108.005 18.3293C107.577 17.832 107.234 17.2353 106.977 16.5391C106.728 15.843 106.556 15.0588 106.463 14.1867V12.9015C106.556 11.9835 106.731 11.1611 106.989 10.4343C107.246 9.70754 107.585 9.08788 108.005 8.57531C108.434 8.0551 108.952 7.66112 109.559 7.39336C110.167 7.11796 110.868 6.98026 111.663 6.98026C112.458 6.98026 113.163 7.13326 113.778 7.43927C114.394 7.73762 114.912 8.16603 115.332 8.72449C115.753 9.28295 116.069 9.95234 116.279 10.7327C116.497 11.5053 116.606 12.366 116.606 13.3146ZM114.433 13.5556V13.3146C114.433 12.6949 114.366 12.1135 114.234 11.5704C114.102 11.0195 113.895 10.5376 113.615 10.1245C113.342 9.70371 112.991 9.37476 112.563 9.1376C112.134 8.8928 111.624 8.77039 111.032 8.77039C110.487 8.77039 110.011 8.8622 109.606 9.0458C109.209 9.2294 108.87 9.47803 108.59 9.79169C108.309 10.0977 108.079 10.4496 107.9 10.8474C107.729 11.2376 107.6 11.643 107.514 12.0638V15.0359C107.67 15.5714 107.888 16.0763 108.169 16.5506C108.449 17.0173 108.823 17.396 109.291 17.6867C109.758 17.9697 110.346 18.1112 111.055 18.1112C111.64 18.1112 112.142 17.9927 112.563 17.7555C112.991 17.5107 113.342 17.1779 113.615 16.7572C113.895 16.3364 114.102 15.8544 114.234 15.3113C114.366 14.7605 114.433 14.1752 114.433 13.5556Z" fill="#00B37E"/>
<path d="M28.8295 20.6364H26.6136L33.0227 3.18181H35.2045L41.6136 20.6364H39.3977L34.1818 5.94317H34.0455L28.8295 20.6364ZM29.6477 13.8182H38.5795V15.6932H29.6477V13.8182ZM43.0997 25.5454V7.54544H45.0428V9.62499H45.2815C45.4292 9.39772 45.6338 9.10794 45.8951 8.75567C46.1622 8.39772 46.5428 8.07953 47.0372 7.80113C47.5372 7.51703 48.2133 7.37499 49.0656 7.37499C50.1678 7.37499 51.1394 7.65056 51.9803 8.20169C52.8213 8.75283 53.4775 9.53408 53.9491 10.5454C54.4207 11.5568 54.6565 12.75 54.6565 14.125C54.6565 15.5114 54.4207 16.7131 53.9491 17.7301C53.4775 18.7415 52.8241 19.5256 51.9889 20.0824C51.1536 20.6335 50.1906 20.9091 49.0997 20.9091C48.2588 20.9091 47.5855 20.7699 47.0798 20.4915C46.5741 20.2074 46.1849 19.8864 45.9122 19.5284C45.6394 19.1648 45.4292 18.8636 45.2815 18.625H45.111V25.5454H43.0997ZM45.0769 14.0909C45.0769 15.0795 45.2218 15.9517 45.5116 16.7074C45.8014 17.4574 46.2247 18.0454 46.7815 18.4716C47.3383 18.892 48.0201 19.1023 48.8269 19.1023C49.6678 19.1023 50.3695 18.8807 50.932 18.4375C51.5002 17.9886 51.9264 17.3864 52.2105 16.6307C52.5002 15.8693 52.6451 15.0227 52.6451 14.0909C52.6451 13.1704 52.5031 12.3409 52.219 11.6023C51.9406 10.8579 51.5173 10.2699 50.9491 9.83806C50.3866 9.40056 49.6792 9.18181 48.8269 9.18181C48.0088 9.18181 47.3213 9.38919 46.7644 9.80397C46.2076 10.2131 45.7872 10.7869 45.5031 11.5256C45.219 12.2585 45.0769 13.1136 45.0769 14.0909ZM56.7647 25.5454V7.54544H58.7078V9.62499H58.9465C59.0942 9.39772 59.2988 9.10794 59.5601 8.75567C59.8272 8.39772 60.2078 8.07953 60.7022 7.80113C61.2022 7.51703 61.8783 7.37499 62.7306 7.37499C63.8328 7.37499 64.8044 7.65056 65.6453 8.20169C66.4863 8.75283 67.1425 9.53408 67.6141 10.5454C68.0857 11.5568 68.3215 12.75 68.3215 14.125C68.3215 15.5114 68.0857 16.7131 67.6141 17.7301C67.1425 18.7415 66.4891 19.5256 65.6539 20.0824C64.8186 20.6335 63.8556 20.9091 62.7647 20.9091C61.9238 20.9091 61.2505 20.7699 60.7448 20.4915C60.2391 20.2074 59.8499 19.8864 59.5772 19.5284C59.3044 19.1648 59.0942 18.8636 58.9465 18.625H58.776V25.5454H56.7647ZM58.7419 14.0909C58.7419 15.0795 58.8868 15.9517 59.1766 16.7074C59.4664 17.4574 59.8897 18.0454 60.4465 18.4716C61.0033 18.892 61.6851 19.1023 62.4919 19.1023C63.3328 19.1023 64.0345 18.8807 64.597 18.4375C65.1652 17.9886 65.5914 17.3864 65.8755 16.6307C66.1652 15.8693 66.3101 15.0227 66.3101 14.0909C66.3101 13.1704 66.1681 12.3409 65.884 11.6023C65.6056 10.8579 65.1823 10.2699 64.6141 9.83806C64.0516 9.40056 63.3442 9.18181 62.4919 9.18181C61.6738 9.18181 60.9863 9.38919 60.4294 9.80397C59.8726 10.2131 59.4522 10.7869 59.1681 11.5256C58.884 12.2585 58.7419 13.1136 58.7419 14.0909Z" fill="#996DFF"/>
</svg>
